<!-- Generated by graphviz version 2.40.1 (20161225.0304)
 -->
<!-- Title: Directory src Pages: 1 -->
<svg width="1071pt" height="885pt"
     viewBox="0.00 0.00 1071.48 884.60" xmlns="http://www.w3.org/2000/svg">
    <g id="graph0" class="graph" transform="scale(1 1) rotate(0) translate(4 880.6)">
        <title>Directory src</title>
        <polygon fill="#ffffff" stroke="transparent" points="-4,4 -4,-880.6 1067.4839,-880.6 1067.4839,4 -4,4"/>
        <!-- ActionType -->
        <g id="node1" class="node">
            <title>ActionType</title>
            <polygon fill="none" stroke="#000000"
                     points="99.689,-205.7 99.689,-288.9 186.8412,-288.9 186.8412,-205.7 99.689,-205.7"/>
            <text text-anchor="middle" x="143.2651" y="-272.3" font-family="Times,serif" font-size="14.00"
                  fill="#000000">ActionType
            </text>
            <polyline fill="none" stroke="#000000" points="99.689,-264.1 186.8412,-264.1 "/>
            <text text-anchor="start" x="107.689" y="-247.5" font-family="Times,serif" font-size="14.00" fill="#000000">
                ALARM :
            </text>
            <text text-anchor="start" x="107.689" y="-230.7" font-family="Times,serif" font-size="14.00" fill="#000000">
                ARMING :
            </text>
            <text text-anchor="start" x="107.689" y="-213.9" font-family="Times,serif" font-size="14.00" fill="#000000">
                INFO :
            </text>
        </g>
        <!-- AlarmJson -->
        <g id="node2" class="node">
            <title>AlarmJson</title>
            <polygon fill="none" stroke="#000000"
                     points="46.939,-381.3 46.939,-430.9 123.5912,-430.9 123.5912,-381.3 46.939,-381.3"/>
            <text text-anchor="middle" x="85.2651" y="-414.3" font-family="Times,serif" font-size="14.00"
                  fill="#000000">AlarmJson
            </text>
            <polyline fill="none" stroke="#000000" points="46.939,-406.1 123.5912,-406.1 "/>
        </g>
        <!-- AlarmType -->
        <g id="node3" class="node">
            <title>AlarmType</title>
            <polygon fill="none" stroke="#000000" points="0,-205.7 0,-288.9 80.5302,-288.9 80.5302,-205.7 0,-205.7"/>
            <text text-anchor="middle" x="40.2651" y="-272.3" font-family="Times,serif" font-size="14.00"
                  fill="#000000">AlarmType
            </text>
            <polyline fill="none" stroke="#000000" points="0,-264.1 80.5302,-264.1 "/>
            <text text-anchor="start" x="8" y="-247.5" font-family="Times,serif" font-size="14.00" fill="#000000">POLICE
                :
            </text>
            <text text-anchor="start" x="8" y="-230.7" font-family="Times,serif" font-size="14.00" fill="#000000">FIRE
                :
            </text>
            <text text-anchor="start" x="8" y="-213.9" font-family="Times,serif" font-size="14.00" fill="#000000">AUX
                :
            </text>
        </g>
        <!-- AlarmJson&#45;&gt;AlarmType -->
        <g id="edge1" class="edge">
            <title>AlarmJson&#45;&gt;AlarmType</title>
            <path fill="none" stroke="#595959" stroke-dasharray="5,2"
                  d="M58.1361,-381.2875C58.1361,-381.2875 58.1361,-298.9191 58.1361,-298.9191"/>
            <polygon fill="#595959" stroke="#595959"
                     points="58.1361,-288.9191 62.6362,-298.919 58.1361,-293.9191 58.1362,-298.9191 58.1362,-298.9191 58.1362,-298.9191 58.1361,-293.9191 53.6362,-298.9191 58.1361,-288.9191 58.1361,-288.9191"/>
        </g>
        <!-- ArmingJson -->
        <g id="node4" class="node">
            <title>ArmingJson</title>
            <polygon fill="none" stroke="#000000"
                     points="979.0463,-381.3 979.0463,-430.9 1063.4839,-430.9 1063.4839,-381.3 979.0463,-381.3"/>
            <text text-anchor="middle" x="1021.2651" y="-414.3" font-family="Times,serif" font-size="14.00"
                  fill="#000000">ArmingJson
            </text>
            <polyline fill="none" stroke="#000000" points="979.0463,-406.1 1063.4839,-406.1 "/>
        </g>
        <!-- ArmingStateType -->
        <g id="node5" class="node">
            <title>ArmingStateType</title>
            <polygon fill="none" stroke="#000000"
                     points="171.4039,-.5 171.4039,-150.9 335.1263,-150.9 335.1263,-.5 171.4039,-.5"/>
            <text text-anchor="middle" x="253.2651" y="-134.3" font-family="Times,serif" font-size="14.00"
                  fill="#000000">ArmingStateType
            </text>
            <polyline fill="none" stroke="#000000" points="171.4039,-126.1 335.1263,-126.1 "/>
            <text text-anchor="start" x="179.4039" y="-109.5" font-family="Times,serif" font-size="14.00"
                  fill="#000000">AWAY_EXIT_DELAY :
            </text>
            <text text-anchor="start" x="179.4039" y="-92.7" font-family="Times,serif" font-size="14.00" fill="#000000">
                STAY_EXIT_DELAY :
            </text>
            <text text-anchor="start" x="179.4039" y="-75.9" font-family="Times,serif" font-size="14.00" fill="#000000">
                ENTRY_DELAY :
            </text>
            <text text-anchor="start" x="179.4039" y="-59.1" font-family="Times,serif" font-size="14.00" fill="#000000">
                EXIT_DELAY :
            </text>
            <text text-anchor="start" x="179.4039" y="-42.3" font-family="Times,serif" font-size="14.00" fill="#000000">
                DISARM :
            </text>
            <text text-anchor="start" x="179.4039" y="-25.5" font-family="Times,serif" font-size="14.00" fill="#000000">
                ARM_STAY :
            </text>
            <text text-anchor="start" x="179.4039" y="-8.7" font-family="Times,serif" font-size="14.00" fill="#000000">
                ARM_AWAY :
            </text>
        </g>
        <!-- ArmingJson&#45;&gt;ArmingStateType -->
        <g id="edge2" class="edge">
            <title>ArmingJson&#45;&gt;ArmingStateType</title>
            <path fill="none" stroke="#595959" stroke-dasharray="5,2"
                  d="M1021.2651,-381.2013C1021.2651,-311.0761 1021.2651,-117 1021.2651,-117 1021.2651,-117 345.4546,-117 345.4546,-117"/>
            <polygon fill="#595959" stroke="#595959"
                     points="335.4546,-117 345.4546,-112.5001 340.4546,-117 345.4546,-117.0001 345.4546,-117.0001 345.4546,-117.0001 340.4546,-117 345.4545,-121.5001 335.4546,-117 335.4546,-117"/>
        </g>
        <!-- CountdownTimer -->
        <g id="node6" class="node">
            <title>CountdownTimer</title>
            <polygon fill="none" stroke="#000000"
                     points="359.7528,-343.7 359.7528,-468.5 548.7774,-468.5 548.7774,-343.7 359.7528,-343.7"/>
            <text text-anchor="middle" x="454.2651" y="-451.9" font-family="Times,serif" font-size="14.00"
                  fill="#000000">CountdownTimer
            </text>
            <polyline fill="none" stroke="#000000" points="359.7528,-443.7 548.7774,-443.7 "/>
            <text text-anchor="start" x="367.7528" y="-427.1" font-family="Times,serif" font-size="14.00"
                  fill="#000000">constructor() :
            </text>
            <polyline fill="none" stroke="#000000" points="359.7528,-418.9 548.7774,-418.9 "/>
            <text text-anchor="start" x="367.7528" y="-402.3" font-family="Times,serif" font-size="14.00"
                  fill="#000000">intervalId : NodeJS.Timeout
            </text>
            <text text-anchor="start" x="367.7528" y="-385.5" font-family="Times,serif" font-size="14.00"
                  fill="#000000">_countdownSeconds : number
            </text>
            <text text-anchor="start" x="367.7528" y="-368.7" font-family="Times,serif" font-size="14.00"
                  fill="#000000">_payload : T
            </text>
            <text text-anchor="start" x="367.7528" y="-351.9" font-family="Times,serif" font-size="14.00"
                  fill="#000000">_remainingTime : number
            </text>
        </g>
        <!-- ErrorJson -->
        <g id="node7" class="node">
            <title>ErrorJson</title>
            <polygon fill="none" stroke="#000000"
                     points="853.0533,-381.3 853.0533,-430.9 923.4769,-430.9 923.4769,-381.3 853.0533,-381.3"/>
            <text text-anchor="middle" x="888.2651" y="-414.3" font-family="Times,serif" font-size="14.00"
                  fill="#000000">ErrorJson
            </text>
            <polyline fill="none" stroke="#000000" points="853.0533,-406.1 923.4769,-406.1 "/>
        </g>
        <!-- EventType -->
        <g id="node8" class="node">
            <title>EventType</title>
            <polygon fill="none" stroke="#000000"
                     points="607.689,-188.9 607.689,-305.7 694.8412,-305.7 694.8412,-188.9 607.689,-188.9"/>
            <text text-anchor="middle" x="651.2651" y="-289.1" font-family="Times,serif" font-size="14.00"
                  fill="#000000">EventType
            </text>
            <polyline fill="none" stroke="#000000" points="607.689,-280.9 694.8412,-280.9 "/>
            <text text-anchor="start" x="615.689" y="-264.3" font-family="Times,serif" font-size="14.00" fill="#000000">
                INFO :
            </text>
            <text text-anchor="start" x="615.689" y="-247.5" font-family="Times,serif" font-size="14.00" fill="#000000">
                ZONE :
            </text>
            <text text-anchor="start" x="615.689" y="-230.7" font-family="Times,serif" font-size="14.00" fill="#000000">
                ARMING :
            </text>
            <text text-anchor="start" x="615.689" y="-213.9" font-family="Times,serif" font-size="14.00" fill="#000000">
                ALARM :
            </text>
            <text text-anchor="start" x="615.689" y="-197.1" font-family="Times,serif" font-size="14.00" fill="#000000">
                ERROR :
            </text>
        </g>
        <!-- InfoType -->
        <g id="node9" class="node">
            <title>InfoType</title>
            <polygon fill="none" stroke="#000000"
                     points="280.7921,-214.1 280.7921,-280.5 403.7381,-280.5 403.7381,-214.1 280.7921,-214.1"/>
            <text text-anchor="middle" x="342.2651" y="-263.9" font-family="Times,serif" font-size="14.00"
                  fill="#000000">InfoType
            </text>
            <polyline fill="none" stroke="#000000" points="280.7921,-255.7 403.7381,-255.7 "/>
            <text text-anchor="start" x="288.7921" y="-239.1" font-family="Times,serif" font-size="14.00"
                  fill="#000000">SUMMARY :
            </text>
            <text text-anchor="start" x="288.7921" y="-222.3" font-family="Times,serif" font-size="14.00"
                  fill="#000000">SECURE_ARM :
            </text>
        </g>
        <!-- PartitionJson -->
        <g id="node10" class="node">
            <title>PartitionJson</title>
            <polygon fill="none" stroke="#000000"
                     points="712.7104,-222.5 712.7104,-272.1 801.8198,-272.1 801.8198,-222.5 712.7104,-222.5"/>
            <text text-anchor="middle" x="757.2651" y="-255.5" font-family="Times,serif" font-size="14.00"
                  fill="#000000">PartitionJson
            </text>
            <polyline fill="none" stroke="#000000" points="712.7104,-247.3 801.8198,-247.3 "/>
        </g>
        <!-- PartitionJson&#45;&gt;ArmingStateType -->
        <g id="edge3" class="edge">
            <title>PartitionJson&#45;&gt;ArmingStateType</title>
            <path fill="none" stroke="#595959" stroke-dasharray="5,2"
                  d="M741.0736,-222.4358C741.0736,-189.0841 741.0736,-134 741.0736,-134 741.0736,-134 345.1883,-134 345.1883,-134"/>
            <polygon fill="#595959" stroke="#595959"
                     points="335.1883,-134 345.1883,-129.5001 340.1883,-134 345.1883,-134.0001 345.1883,-134.0001 345.1883,-134.0001 340.1883,-134 345.1882,-138.5001 335.1883,-134 335.1883,-134"/>
        </g>
        <!-- ZoneJson -->
        <g id="node16" class="node">
            <title>ZoneJson</title>
            <polygon fill="none" stroke="#000000"
                     points="769.4369,-50.9 769.4369,-100.5 839.0933,-100.5 839.0933,-50.9 769.4369,-50.9"/>
            <text text-anchor="middle" x="804.2651" y="-83.9" font-family="Times,serif" font-size="14.00"
                  fill="#000000">ZoneJson
            </text>
            <polyline fill="none" stroke="#000000" points="769.4369,-75.7 839.0933,-75.7 "/>
        </g>
        <!-- PartitionJson&#45;&gt;ZoneJson -->
        <g id="edge4" class="edge">
            <title>PartitionJson&#45;&gt;ZoneJson</title>
            <path fill="none" stroke="#595959" stroke-dasharray="5,2"
                  d="M785.6284,-222.3479C785.6284,-222.3479 785.6284,-110.6822 785.6284,-110.6822"/>
            <polygon fill="#595959" stroke="#595959"
                     points="785.6284,-100.6822 790.1284,-110.6822 785.6284,-105.6822 785.6284,-110.6822 785.6284,-110.6822 785.6284,-110.6822 785.6284,-105.6822 781.1284,-110.6823 785.6284,-100.6822 785.6284,-100.6822"/>
        </g>
        <!-- PayloadJson -->
        <g id="node11" class="node">
            <title>PayloadJson</title>
            <polygon fill="none" stroke="#000000"
                     points="255.2693,-381.3 255.2693,-430.9 341.2609,-430.9 341.2609,-381.3 255.2693,-381.3"/>
            <text text-anchor="middle" x="298.2651" y="-414.3" font-family="Times,serif" font-size="14.00"
                  fill="#000000">PayloadJson
            </text>
            <polyline fill="none" stroke="#000000" points="255.2693,-406.1 341.2609,-406.1 "/>
        </g>
        <!-- PayloadJson&#45;&gt;ActionType -->
        <g id="edge5" class="edge">
            <title>PayloadJson&#45;&gt;ActionType</title>
            <path fill="none" stroke="#595959" stroke-dasharray="5,2"
                  d="M268.0307,-381.008C268.0307,-345.5371 268.0307,-285 268.0307,-285 268.0307,-285 196.9021,-285 196.9021,-285"/>
            <polygon fill="#595959" stroke="#595959"
                     points="186.9021,-285 196.9021,-280.5001 191.9021,-285 196.9021,-285.0001 196.9021,-285.0001 196.9021,-285.0001 191.9021,-285 196.902,-289.5001 186.9021,-285 186.9021,-285"/>
        </g>
        <!-- PayloadJson&#45;&gt;AlarmType -->
        <g id="edge6" class="edge">
            <title>PayloadJson&#45;&gt;AlarmType</title>
            <path fill="none" stroke="#595959" stroke-dasharray="5,2"
                  d="M261.65,-381.2243C261.65,-349.8643 261.65,-300 261.65,-300 261.65,-300 69.3331,-300 69.3331,-300 69.3331,-300 69.3331,-298.9081 69.3331,-298.9081"/>
            <polygon fill="#595959" stroke="#595959"
                     points="69.3331,-289.0805 73.8332,-299.0805 69.3332,-294.0805 69.3332,-299.0805 69.3332,-299.0805 69.3332,-299.0805 69.3332,-294.0805 64.8332,-299.0806 69.3331,-289.0805 69.3331,-289.0805"/>
        </g>
        <!-- PayloadJson&#45;&gt;ArmingStateType -->
        <g id="edge7" class="edge">
            <title>PayloadJson&#45;&gt;ArmingStateType</title>
            <path fill="none" stroke="#595959" stroke-dasharray="5,2"
                  d="M274.4114,-381.2663C274.4114,-381.2663 274.4114,-161.0879 274.4114,-161.0879"/>
            <polygon fill="#595959" stroke="#595959"
                     points="274.4114,-151.0879 278.9115,-161.0879 274.4114,-156.0879 274.4115,-161.0879 274.4115,-161.0879 274.4115,-161.0879 274.4114,-156.0879 269.9115,-161.088 274.4114,-151.0879 274.4114,-151.0879"/>
        </g>
        <!-- PayloadJson&#45;&gt;EventType -->
        <g id="edge8" class="edge">
            <title>PayloadJson&#45;&gt;EventType</title>
            <path fill="none" stroke="#595959" stroke-dasharray="5,2"
                  d="M311.0265,-381.1424C311.0265,-350.6296 311.0265,-303 311.0265,-303 311.0265,-303 597.4814,-303 597.4814,-303"/>
            <polygon fill="#595959" stroke="#595959"
                     points="607.4814,-303 597.4814,-307.5001 602.4814,-303 597.4814,-303.0001 597.4814,-303.0001 597.4814,-303.0001 602.4814,-303 597.4813,-298.5001 607.4814,-303 607.4814,-303"/>
        </g>
        <!-- PayloadJson&#45;&gt;InfoType -->
        <g id="edge9" class="edge">
            <title>PayloadJson&#45;&gt;InfoType</title>
            <path fill="none" stroke="#595959" stroke-dasharray="5,2"
                  d="M290.8702,-381.2875C290.8702,-381.2875 290.8702,-290.7834 290.8702,-290.7834"/>
            <polygon fill="#595959" stroke="#595959"
                     points="290.8702,-280.7834 295.3703,-290.7833 290.8703,-285.7834 290.8703,-290.7834 290.8703,-290.7834 290.8703,-290.7834 290.8703,-285.7834 286.3703,-290.7834 290.8702,-280.7834 290.8702,-280.7834"/>
        </g>
        <!-- PayloadJson&#45;&gt;PartitionJson -->
        <g id="edge10" class="edge">
            <title>PayloadJson&#45;&gt;PartitionJson</title>
            <path fill="none" stroke="#595959" stroke-dasharray="5,2"
                  d="M321.1046,-381.0897C321.1046,-355.0435 321.1046,-318 321.1046,-318 321.1046,-318 728.1085,-318 728.1085,-318 728.1085,-318 728.1085,-282.4252 728.1085,-282.4252"/>
            <polygon fill="#595959" stroke="#595959"
                     points="728.1085,-272.4252 732.6086,-282.4252 728.1086,-277.4252 728.1086,-282.4252 728.1086,-282.4252 728.1086,-282.4252 728.1086,-277.4252 723.6086,-282.4253 728.1085,-272.4252 728.1085,-272.4252"/>
        </g>
        <!-- ZoneEventType -->
        <g id="node15" class="node">
            <title>ZoneEventType</title>
            <polygon fill="none" stroke="#000000"
                     points="421.3068,-197.3 421.3068,-297.3 551.2234,-297.3 551.2234,-197.3 421.3068,-197.3"/>
            <text text-anchor="middle" x="486.2651" y="-280.7" font-family="Times,serif" font-size="14.00"
                  fill="#000000">ZoneEventType
            </text>
            <polyline fill="none" stroke="#000000" points="421.3068,-272.5 551.2234,-272.5 "/>
            <text text-anchor="start" x="429.3068" y="-255.9" font-family="Times,serif" font-size="14.00"
                  fill="#000000">ZONE_ACTIVE :
            </text>
            <text text-anchor="start" x="429.3068" y="-239.1" font-family="Times,serif" font-size="14.00"
                  fill="#000000">ZONE_ADD :
            </text>
            <text text-anchor="start" x="429.3068" y="-222.3" font-family="Times,serif" font-size="14.00"
                  fill="#000000">ZONE_DELETE :
            </text>
            <text text-anchor="start" x="429.3068" y="-205.5" font-family="Times,serif" font-size="14.00"
                  fill="#000000">ZONE_UPDATE :
            </text>
        </g>
        <!-- PayloadJson&#45;&gt;ZoneEventType -->
        <g id="edge11" class="edge">
            <title>PayloadJson&#45;&gt;ZoneEventType</title>
            <path fill="none" stroke="#595959" stroke-dasharray="5,2"
                  d="M300.9484,-381.2797C300.9484,-347.9869 300.9484,-293 300.9484,-293 300.9484,-293 411.1899,-293 411.1899,-293"/>
            <polygon fill="#595959" stroke="#595959"
                     points="421.1899,-293 411.19,-297.5001 416.1899,-293 411.1899,-293.0001 411.1899,-293.0001 411.1899,-293.0001 416.1899,-293 411.1899,-288.5001 421.1899,-293 421.1899,-293"/>
        </g>
        <!-- PayloadJson&#45;&gt;ZoneJson -->
        <g id="edge12" class="edge">
            <title>PayloadJson&#45;&gt;ZoneJson</title>
            <path fill="none" stroke="#595959" stroke-dasharray="5,2"
                  d="M331.1828,-381.182C331.1828,-358.988 331.1828,-330 331.1828,-330 331.1828,-330 811.1382,-330 811.1382,-330 811.1382,-330 811.1382,-110.5464 811.1382,-110.5464"/>
            <polygon fill="#595959" stroke="#595959"
                     points="811.1382,-100.5464 815.6383,-110.5463 811.1382,-105.5464 811.1383,-110.5464 811.1383,-110.5464 811.1383,-110.5464 811.1382,-105.5464 806.6383,-110.5464 811.1382,-100.5464 811.1382,-100.5464"/>
        </g>
        <!-- QolsysEventParser -->
        <g id="node12" class="node">
            <title>QolsysEventParser</title>
            <polygon fill="none" stroke="#000000"
                     points="516.8291,-572.7 516.8291,-680.7 789.7011,-680.7 789.7011,-572.7 516.8291,-572.7"/>
            <text text-anchor="middle" x="653.2651" y="-664.1" font-family="Times,serif" font-size="14.00"
                  fill="#000000">QolsysEventParser
            </text>
            <polyline fill="none" stroke="#000000" points="516.8291,-655.9 789.7011,-655.9 "/>
            <text text-anchor="start" x="524.8291" y="-639.3" font-family="Times,serif" font-size="14.00"
                  fill="#000000">constructor(logger: ioBroker.Logger) :
            </text>
            <polyline fill="none" stroke="#000000" points="516.8291,-631.1 789.7011,-631.1 "/>
            <text text-anchor="start" x="524.8291" y="-614.5" font-family="Times,serif" font-size="14.00"
                  fill="#000000">countdown : CountdownTimer&lt;ArmingJson&gt;
            </text>
            <text text-anchor="start" x="524.8291" y="-597.7" font-family="Times,serif" font-size="14.00"
                  fill="#000000">log : ioBroker.Logger
            </text>
            <text text-anchor="start" x="524.8291" y="-580.9" font-family="Times,serif" font-size="14.00"
                  fill="#000000">_partitions : PartitionJson[]
            </text>
        </g>
        <!-- QolsysEventParser&#45;&gt;AlarmJson -->
        <g id="edge13" class="edge">
            <title>QolsysEventParser&#45;&gt;AlarmJson</title>
            <path fill="none" stroke="#595959" stroke-dasharray="5,2"
                  d="M523.2188,-572.3722C523.2188,-536.094 523.2188,-495 523.2188,-495 523.2188,-495 98.0405,-495 98.0405,-495 98.0405,-495 98.0405,-441.3374 98.0405,-441.3374"/>
            <polygon fill="#595959" stroke="#595959"
                     points="98.0405,-431.3374 102.5406,-441.3373 98.0405,-436.3374 98.0406,-441.3374 98.0406,-441.3374 98.0406,-441.3374 98.0405,-436.3374 93.5406,-441.3374 98.0405,-431.3374 98.0405,-431.3374"/>
        </g>
        <!-- QolsysEventParser&#45;&gt;ArmingJson -->
        <g id="edge14" class="edge">
            <title>QolsysEventParser&#45;&gt;ArmingJson</title>
            <path fill="none" stroke="#595959" stroke-dasharray="5,2"
                  d="M789.8494,-644C889.4983,-644 1007.1922,-644 1007.1922,-644 1007.1922,-644 1007.1922,-441.1098 1007.1922,-441.1098"/>
            <polygon fill="#595959" stroke="#595959"
                     points="1007.1922,-431.1098 1011.6923,-441.1098 1007.1922,-436.1098 1007.1923,-441.1098 1007.1923,-441.1098 1007.1923,-441.1098 1007.1922,-436.1098 1002.6923,-441.1099 1007.1922,-431.1098 1007.1922,-431.1098"/>
        </g>
        <!-- QolsysEventParser&#45;&gt;CountdownTimer -->
        <g id="edge15" class="edge">
            <title>QolsysEventParser&#45;&gt;CountdownTimer</title>
            <path fill="none" stroke="#595959" stroke-dasharray="5,2"
                  d="M542.3877,-572.4526C542.3877,-572.4526 542.3877,-478.7354 542.3877,-478.7354"/>
            <polygon fill="#595959" stroke="#595959"
                     points="542.3877,-468.7354 546.8878,-478.7353 542.3878,-473.7354 542.3878,-478.7354 542.3878,-478.7354 542.3878,-478.7354 542.3878,-473.7354 537.8878,-478.7354 542.3877,-468.7354 542.3877,-468.7354"/>
            <text text-anchor="middle" x="482.6305" y="-491.2" font-family="Times,serif" font-size="14.00"
                  fill="#000000">«create»
            </text>
        </g>
        <!-- QolsysEventParser&#45;&gt;ErrorJson -->
        <g id="edge16" class="edge">
            <title>QolsysEventParser&#45;&gt;ErrorJson</title>
            <path fill="none" stroke="#595959" stroke-dasharray="5,2"
                  d="M774.303,-572.428C774.303,-507.0809 774.303,-406 774.303,-406 774.303,-406 842.8315,-406 842.8315,-406"/>
            <polygon fill="#595959" stroke="#595959"
                     points="852.8315,-406 842.8315,-410.5001 847.8315,-406 842.8315,-406.0001 842.8315,-406.0001 842.8315,-406.0001 847.8315,-406 842.8314,-401.5001 852.8315,-406 852.8315,-406"/>
        </g>
        <!-- QolsysEventParser&#45;&gt;EventType -->
        <g id="edge17" class="edge">
            <title>QolsysEventParser&#45;&gt;EventType</title>
            <path fill="none" stroke="#595959" stroke-dasharray="5,2"
                  d="M651.2651,-572.3412C651.2651,-572.3412 651.2651,-315.9216 651.2651,-315.9216"/>
            <polygon fill="#595959" stroke="#595959"
                     points="651.2651,-305.9216 655.7652,-315.9215 651.2651,-310.9216 651.2652,-315.9216 651.2652,-315.9216 651.2652,-315.9216 651.2651,-310.9216 646.7652,-315.9216 651.2651,-305.9216 651.2651,-305.9216"/>
        </g>
        <!-- QolsysEventParser&#45;&gt;InfoType -->
        <g id="edge18" class="edge">
            <title>QolsysEventParser&#45;&gt;InfoType</title>
            <path fill="none" stroke="#595959" stroke-dasharray="5,2"
                  d="M535.9981,-572.6549C535.9981,-529.7751 535.9981,-477 535.9981,-477 535.9981,-477 353.5888,-477 353.5888,-477 353.5888,-477 353.5888,-290.7004 353.5888,-290.7004"/>
            <polygon fill="#595959" stroke="#595959"
                     points="353.5888,-280.7004 358.0889,-290.7003 353.5889,-285.7004 353.5889,-290.7004 353.5889,-290.7004 353.5889,-290.7004 353.5889,-285.7004 349.0889,-290.7004 353.5888,-280.7004 353.5888,-280.7004"/>
        </g>
        <!-- QolsysEventParser&#45;&gt;PartitionJson -->
        <g id="edge19" class="edge">
            <title>QolsysEventParser&#45;&gt;PartitionJson</title>
            <path fill="none" stroke="#595959" stroke-dasharray="5,2"
                  d="M758.9048,-572.3412C758.9048,-572.3412 758.9048,-282.182 758.9048,-282.182"/>
            <polygon fill="#595959" stroke="#595959"
                     points="758.9048,-272.182 763.4049,-282.182 758.9049,-277.182 758.9049,-282.182 758.9049,-282.182 758.9049,-282.182 758.9049,-277.182 754.4049,-282.1821 758.9048,-272.182 758.9048,-272.182"/>
        </g>
        <!-- QolsysEventParser&#45;&gt;PartitionJson -->
        <g id="edge20" class="edge">
            <title>QolsysEventParser&#45;&gt;PartitionJson</title>
            <path fill="none" stroke="#595959"
                  d="M743.5067,-560.3412C743.5067,-560.3412 743.5067,-282.182 743.5067,-282.182"/>
            <polygon fill="#595959" stroke="#595959"
                     points="743.5067,-284.182 739.5067,-278.182 743.5067,-272.182 747.5067,-278.182 743.5067,-284.182"/>
            <polygon fill="#595959" stroke="#595959"
                     points="743.5067,-572.3412 739.0067,-562.3412 743.5067,-567.3412 743.5067,-562.3412 743.5067,-562.3412 743.5067,-562.3412 743.5067,-567.3412 748.0067,-562.3412 743.5067,-572.3412 743.5067,-572.3412"/>
            <text text-anchor="middle" x="767.2062" y="-401.9" font-family="Times,serif" font-size="14.00"
                  fill="#000000">_partitions
            </text>
            <text text-anchor="middle" x="740.0067" y="-559.7412" font-family="Times,serif" font-size="14.00"
                  fill="#000000">*
            </text>
        </g>
        <!-- QolsysEventParser&#45;&gt;PayloadJson -->
        <g id="edge21" class="edge">
            <title>QolsysEventParser&#45;&gt;PayloadJson</title>
            <path fill="none" stroke="#595959" stroke-dasharray="5,2"
                  d="M529.6084,-572.3017C529.6084,-532.7087 529.6084,-486 529.6084,-486 529.6084,-486 312.597,-486 312.597,-486 312.597,-486 312.597,-440.9429 312.597,-440.9429"/>
            <polygon fill="#595959" stroke="#595959"
                     points="312.597,-430.9429 317.0971,-440.9428 312.5971,-435.9429 312.5971,-440.9429 312.5971,-440.9429 312.5971,-440.9429 312.5971,-435.9429 308.0971,-440.9429 312.597,-430.9429 312.597,-430.9429"/>
        </g>
        <!-- QolsysEventParser&#45;&gt;ZoneEventType -->
        <g id="edge22" class="edge">
            <title>QolsysEventParser&#45;&gt;ZoneEventType</title>
            <path fill="none" stroke="#595959" stroke-dasharray="5,2"
                  d="M579.4562,-572.2982C579.4562,-467.3078 579.4562,-247 579.4562,-247 579.4562,-247 561.2429,-247 561.2429,-247"/>
            <polygon fill="#595959" stroke="#595959"
                     points="551.2429,-247 561.2429,-242.5001 556.2429,-247 561.2429,-247.0001 561.2429,-247.0001 561.2429,-247.0001 556.2429,-247 561.2429,-251.5001 551.2429,-247 551.2429,-247"/>
        </g>
        <!-- QolsysEventParser&#45;&gt;ZoneJson -->
        <g id="edge23" class="edge">
            <title>QolsysEventParser&#45;&gt;ZoneJson</title>
            <path fill="none" stroke="#595959" stroke-dasharray="5,2"
                  d="M789.7911,-608C807.956,-608 820.4565,-608 820.4565,-608 820.4565,-608 820.4565,-110.66 820.4565,-110.66"/>
            <polygon fill="#595959" stroke="#595959"
                     points="820.4565,-100.66 824.9566,-110.6599 820.4566,-105.66 820.4566,-110.66 820.4566,-110.66 820.4566,-110.66 820.4566,-105.66 815.9566,-110.66 820.4565,-100.66 820.4565,-100.66"/>
        </g>
        <!-- QolsysPanel -->
        <g id="node13" class="node">
            <title>QolsysPanel</title>
            <polygon fill="none" stroke="#000000"
                     points="403.571,-784.9 403.571,-876.1 726.9592,-876.1 726.9592,-784.9 403.571,-784.9"/>
            <text text-anchor="middle" x="565.2651" y="-859.5" font-family="Times,serif" font-size="14.00"
                  fill="#000000">QolsysPanel
            </text>
            <polyline fill="none" stroke="#000000" points="403.571,-851.3 726.9592,-851.3 "/>
            <text text-anchor="start" x="411.571" y="-834.7" font-family="Times,serif" font-size="14.00" fill="#000000">
                constructor(options?: Partial&lt;utils.AdapterOptions&gt;) :
            </text>
            <polyline fill="none" stroke="#000000" points="403.571,-826.5 726.9592,-826.5 "/>
            <text text-anchor="start" x="411.571" y="-809.9" font-family="Times,serif" font-size="14.00" fill="#000000">
                eventParser : QolsysEventParser
            </text>
            <text text-anchor="start" x="411.571" y="-793.1" font-family="Times,serif" font-size="14.00" fill="#000000">
                panel : QolsysPanelClient
            </text>
        </g>
        <!-- QolsysPanel&#45;&gt;AlarmJson -->
        <g id="edge24" class="edge">
            <title>QolsysPanel&#45;&gt;AlarmJson</title>
            <path fill="none" stroke="#595959" stroke-dasharray="5,2"
                  d="M479.5962,-784.6719C479.5962,-696.7464 479.5962,-513 479.5962,-513 479.5962,-513 72.4897,-513 72.4897,-513 72.4897,-513 72.4897,-441.1633 72.4897,-441.1633"/>
            <polygon fill="#595959" stroke="#595959"
                     points="72.4897,-431.1633 76.9898,-441.1633 72.4898,-436.1633 72.4898,-441.1633 72.4898,-441.1633 72.4898,-441.1633 72.4898,-436.1633 67.9898,-441.1633 72.4897,-431.1633 72.4897,-431.1633"/>
        </g>
        <!-- QolsysPanel&#45;&gt;AlarmType -->
        <g id="edge25" class="edge">
            <title>QolsysPanel&#45;&gt;AlarmType</title>
            <path fill="none" stroke="#595959" stroke-dasharray="5,2"
                  d="M403.5182,-830C242.3716,-830 18.7752,-830 18.7752,-830 18.7752,-830 18.7752,-299.2063 18.7752,-299.2063"/>
            <polygon fill="#595959" stroke="#595959"
                     points="18.7752,-289.2063 23.2753,-299.2063 18.7752,-294.2063 18.7753,-299.2063 18.7753,-299.2063 18.7753,-299.2063 18.7752,-294.2063 14.2753,-299.2064 18.7752,-289.2063 18.7752,-289.2063"/>
        </g>
        <!-- QolsysPanel&#45;&gt;ArmingJson -->
        <g id="edge26" class="edge">
            <title>QolsysPanel&#45;&gt;ArmingJson</title>
            <path fill="none" stroke="#595959" stroke-dasharray="5,2"
                  d="M727.0375,-858C863.0129,-858 1035.338,-858 1035.338,-858 1035.338,-858 1035.338,-441.0398 1035.338,-441.0398"/>
            <polygon fill="#595959" stroke="#595959"
                     points="1035.338,-431.0398 1039.8381,-441.0398 1035.3381,-436.0398 1035.3381,-441.0398 1035.3381,-441.0398 1035.3381,-441.0398 1035.3381,-436.0398 1030.8381,-441.0398 1035.338,-431.0398 1035.338,-431.0398"/>
        </g>
        <!-- QolsysPanel&#45;&gt;ArmingStateType -->
        <g id="edge27" class="edge">
            <title>QolsysPanel&#45;&gt;ArmingStateType</title>
            <path fill="none" stroke="#595959" stroke-dasharray="5,2"
                  d="M498.2127,-784.7578C498.2127,-694.9004 498.2127,-504 498.2127,-504 498.2127,-504 232.4599,-504 232.4599,-504 232.4599,-504 232.4599,-161.2855 232.4599,-161.2855"/>
            <polygon fill="#595959" stroke="#595959"
                     points="232.4599,-151.2855 236.96,-161.2855 232.46,-156.2855 232.46,-161.2855 232.46,-161.2855 232.46,-161.2855 232.46,-156.2855 227.96,-161.2856 232.4599,-151.2855 232.4599,-151.2855"/>
        </g>
        <!-- QolsysPanel&#45;&gt;ErrorJson -->
        <g id="edge28" class="edge">
            <title>QolsysPanel&#45;&gt;ErrorJson</title>
            <path fill="none" stroke="#595959" stroke-dasharray="5,2"
                  d="M727.2382,-839C807.8302,-839 888.2651,-839 888.2651,-839 888.2651,-839 888.2651,-440.9294 888.2651,-440.9294"/>
            <polygon fill="#595959" stroke="#595959"
                     points="888.2651,-430.9294 892.7652,-440.9294 888.2651,-435.9294 888.2652,-440.9294 888.2652,-440.9294 888.2652,-440.9294 888.2651,-435.9294 883.7652,-440.9295 888.2651,-430.9294 888.2651,-430.9294"/>
        </g>
        <!-- QolsysPanel&#45;&gt;PartitionJson -->
        <g id="edge29" class="edge">
            <title>QolsysPanel&#45;&gt;PartitionJson</title>
            <path fill="none" stroke="#595959" stroke-dasharray="5,2"
                  d="M727.2283,-802C765.6674,-802 795.7605,-802 795.7605,-802 795.7605,-802 795.7605,-282.2119 795.7605,-282.2119"/>
            <polygon fill="#595959" stroke="#595959"
                     points="795.7605,-272.2119 800.2605,-282.2119 795.7605,-277.2119 795.7605,-282.2119 795.7605,-282.2119 795.7605,-282.2119 795.7605,-277.2119 791.2605,-282.212 795.7605,-272.2119 795.7605,-272.2119"/>
        </g>
        <!-- QolsysPanel&#45;&gt;QolsysEventParser -->
        <g id="edge30" class="edge">
            <title>QolsysPanel&#45;&gt;QolsysEventParser</title>
            <path fill="none" stroke="#595959"
                  d="M656.9158,-772.7633C656.9158,-772.7633 656.9158,-690.9613 656.9158,-690.9613"/>
            <polygon fill="#595959" stroke="#595959"
                     points="656.9158,-692.9613 652.9158,-686.9613 656.9158,-680.9613 660.9158,-686.9613 656.9158,-692.9613"/>
            <polygon fill="#595959" stroke="#595959"
                     points="656.9158,-784.7633 652.4158,-774.7633 656.9158,-779.7633 656.9158,-774.7633 656.9158,-774.7633 656.9158,-774.7633 656.9158,-779.7633 661.4158,-774.7633 656.9158,-784.7633 656.9158,-784.7633"/>
            <text text-anchor="middle" x="597.9138" y="-753.8" font-family="Times,serif" font-size="14.00"
                  fill="#000000">eventParser
            </text>
            <text text-anchor="middle" x="653.4158" y="-772.1633" font-family="Times,serif" font-size="14.00"
                  fill="#000000">1
            </text>
        </g>
        <!-- QolsysPanel&#45;&gt;QolsysEventParser -->
        <g id="edge31" class="edge">
            <title>QolsysPanel&#45;&gt;QolsysEventParser</title>
            <path fill="none" stroke="#595959" stroke-dasharray="5,2"
                  d="M586.8725,-784.7633C586.8725,-784.7633 586.8725,-690.9613 586.8725,-690.9613"/>
            <polygon fill="#595959" stroke="#595959"
                     points="586.8725,-680.9613 591.3726,-690.9612 586.8725,-685.9613 586.8726,-690.9613 586.8726,-690.9613 586.8726,-690.9613 586.8725,-685.9613 582.3726,-690.9613 586.8725,-680.9613 586.8725,-680.9613"/>
            <text text-anchor="middle" x="681.6305" y="-753.8" font-family="Times,serif" font-size="14.00"
                  fill="#000000">«create»
            </text>
        </g>
        <!-- QolsysPanelClient -->
        <g id="node14" class="node">
            <title>QolsysPanelClient</title>
            <polygon fill="none" stroke="#000000"
                     points="37.5504,-522.3 37.5504,-731.1 460.9798,-731.1 460.9798,-522.3 37.5504,-522.3"/>
            <text text-anchor="middle" x="249.2651" y="-714.5" font-family="Times,serif" font-size="14.00"
                  fill="#000000">QolsysPanelClient
            </text>
            <polyline fill="none" stroke="#000000" points="37.5504,-706.3 460.9798,-706.3 "/>
            <text text-anchor="start" x="45.5504" y="-689.7" font-family="Times,serif" font-size="14.00" fill="#000000">
                constructor(logger: ioBroker.Logger, config: ioBroker.AdapterConfig) :
            </text>
            <polyline fill="none" stroke="#000000" points="37.5504,-681.5 460.9798,-681.5 "/>
            <text text-anchor="start" x="45.5504" y="-664.9" font-family="Times,serif" font-size="14.00" fill="#000000">
                buffer : string
            </text>
            <text text-anchor="start" x="45.5504" y="-648.1" font-family="Times,serif" font-size="14.00" fill="#000000">
                client : tls.TLSSocket
            </text>
            <text text-anchor="start" x="45.5504" y="-631.3" font-family="Times,serif" font-size="14.00" fill="#000000">
                config : ioBroker.AdapterConfig
            </text>
            <text text-anchor="start" x="45.5504" y="-614.5" font-family="Times,serif" font-size="14.00" fill="#000000">
                log : ioBroker.Logger
            </text>
            <text text-anchor="start" x="45.5504" y="-597.7" font-family="Times,serif" font-size="14.00" fill="#000000">
                pingTimer : NodeJS.Timeout
            </text>
            <text text-anchor="start" x="45.5504" y="-580.9" font-family="Times,serif" font-size="14.00" fill="#000000">
                reconnectInterval : number
            </text>
            <text text-anchor="start" x="45.5504" y="-564.1" font-family="Times,serif" font-size="14.00" fill="#000000">
                reconnectTimer : NodeJS.Timeout
            </text>
            <text text-anchor="start" x="45.5504" y="-547.3" font-family="Times,serif" font-size="14.00" fill="#000000">
                _autoReconnect : boolean
            </text>
            <text text-anchor="start" x="45.5504" y="-530.5" font-family="Times,serif" font-size="14.00" fill="#000000">
                _lastAck : number
            </text>
        </g>
        <!-- QolsysPanel&#45;&gt;QolsysPanelClient -->
        <g id="edge32" class="edge">
            <title>QolsysPanel&#45;&gt;QolsysPanelClient</title>
            <path fill="none" stroke="#595959" stroke-dasharray="5,2"
                  d="M422.7073,-784.7633C422.7073,-784.7633 422.7073,-741.4078 422.7073,-741.4078"/>
            <polygon fill="#595959" stroke="#595959"
                     points="422.7073,-731.4078 427.2074,-741.4077 422.7073,-736.4078 422.7074,-741.4078 422.7074,-741.4078 422.7074,-741.4078 422.7073,-736.4078 418.2074,-741.4078 422.7073,-731.4078 422.7073,-731.4078"/>
            <text text-anchor="middle" x="416.6305" y="-753.8" font-family="Times,serif" font-size="14.00"
                  fill="#000000">«create»
            </text>
        </g>
        <!-- QolsysPanel&#45;&gt;QolsysPanelClient -->
        <g id="edge33" class="edge">
            <title>QolsysPanel&#45;&gt;QolsysPanelClient</title>
            <path fill="none" stroke="#595959"
                  d="M441.8435,-772.7633C441.8435,-772.7633 441.8435,-741.4078 441.8435,-741.4078"/>
            <polygon fill="#595959" stroke="#595959"
                     points="441.8436,-743.4078 437.8435,-737.4078 441.8435,-731.4078 445.8435,-737.4078 441.8436,-743.4078"/>
            <polygon fill="#595959" stroke="#595959"
                     points="441.8435,-784.7633 437.3436,-774.7633 441.8435,-779.7633 441.8436,-774.7633 441.8436,-774.7633 441.8436,-774.7633 441.8435,-779.7633 446.3436,-774.7633 441.8435,-784.7633 441.8435,-784.7633"/>
            <text text-anchor="middle" x="293.425" y="-753.8" font-family="Times,serif" font-size="14.00"
                  fill="#000000">panel
            </text>
            <text text-anchor="middle" x="438.3435" y="-772.1633" font-family="Times,serif" font-size="14.00"
                  fill="#000000">1
            </text>
        </g>
        <!-- QolsysPanel&#45;&gt;ZoneJson -->
        <g id="edge34" class="edge">
            <title>QolsysPanel&#45;&gt;ZoneJson</title>
            <path fill="none" stroke="#595959" stroke-dasharray="5,2"
                  d="M727.1299,-821C782.0417,-821 829.7749,-821 829.7749,-821 829.7749,-821 829.7749,-110.9245 829.7749,-110.9245"/>
            <polygon fill="#595959" stroke="#595959"
                     points="829.7749,-100.9245 834.275,-110.9245 829.775,-105.9245 829.775,-110.9245 829.775,-110.9245 829.775,-110.9245 829.775,-105.9245 825.275,-110.9246 829.7749,-100.9245 829.7749,-100.9245"/>
        </g>
        <!-- QolsysPanelClient&#45;&gt;ActionType -->
        <g id="edge35" class="edge">
            <title>QolsysPanelClient&#45;&gt;ActionType</title>
            <path fill="none" stroke="#595959" stroke-dasharray="5,2"
                  d="M155.2162,-522.2743C155.2162,-522.2743 155.2162,-298.9299 155.2162,-298.9299"/>
            <polygon fill="#595959" stroke="#595959"
                     points="155.2162,-288.9299 159.7163,-298.9298 155.2162,-293.9299 155.2163,-298.9299 155.2163,-298.9299 155.2163,-298.9299 155.2162,-293.9299 150.7163,-298.9299 155.2162,-288.9299 155.2162,-288.9299"/>
        </g>
        <!-- QolsysPanelClient&#45;&gt;AlarmType -->
        <g id="edge36" class="edge">
            <title>QolsysPanelClient&#45;&gt;AlarmType</title>
            <path fill="none" stroke="#595959" stroke-dasharray="5,2"
                  d="M42.2447,-522.2743C42.2447,-522.2743 42.2447,-298.9299 42.2447,-298.9299"/>
            <polygon fill="#595959" stroke="#595959"
                     points="42.2447,-288.9299 46.7448,-298.9298 42.2447,-293.9299 42.2448,-298.9299 42.2448,-298.9299 42.2448,-298.9299 42.2447,-293.9299 37.7448,-298.9299 42.2447,-288.9299 42.2447,-288.9299"/>
        </g>
        <!-- QolsysPanelClient&#45;&gt;ArmingStateType -->
        <g id="edge37" class="edge">
            <title>QolsysPanelClient&#45;&gt;ArmingStateType</title>
            <path fill="none" stroke="#595959" stroke-dasharray="5,2"
                  d="M209.6506,-522.0889C209.6506,-522.0889 209.6506,-161.1549 209.6506,-161.1549"/>
            <polygon fill="#595959" stroke="#595959"
                     points="209.6506,-151.1549 214.1507,-161.1549 209.6506,-156.1549 209.6507,-161.1549 209.6507,-161.1549 209.6507,-161.1549 209.6506,-156.1549 205.1507,-161.155 209.6506,-151.1549 209.6506,-151.1549"/>
        </g>
        <!-- QolsysPanelClient&#45;&gt;InfoType -->
        <g id="edge38" class="edge">
            <title>QolsysPanelClient&#45;&gt;InfoType</title>
            <path fill="none" stroke="#595959" stroke-dasharray="5,2"
                  d="M347.4249,-522.2743C347.4249,-522.2743 347.4249,-290.7259 347.4249,-290.7259"/>
            <polygon fill="#595959" stroke="#595959"
                     points="347.4249,-280.7259 351.925,-290.7258 347.4249,-285.7259 347.425,-290.7259 347.425,-290.7259 347.425,-290.7259 347.4249,-285.7259 342.925,-290.7259 347.4249,-280.7259 347.4249,-280.7259"/>
        </g>
        <!-- QolsysPanelClient&#45;&gt;PayloadJson -->
        <g id="edge39" class="edge">
            <title>QolsysPanelClient&#45;&gt;PayloadJson</title>
            <path fill="none" stroke="#595959" stroke-dasharray="5,2"
                  d="M283.9332,-522.2142C283.9332,-522.2142 283.9332,-441.2579 283.9332,-441.2579"/>
            <polygon fill="#595959" stroke="#595959"
                     points="283.9332,-431.2579 288.4333,-441.2578 283.9332,-436.2579 283.9333,-441.2579 283.9333,-441.2579 283.9333,-441.2579 283.9332,-436.2579 279.4333,-441.2579 283.9332,-431.2579 283.9332,-431.2579"/>
        </g>
    </g>
</svg>
